# xmcd CD database file
#
# Track frame offsets:
#	151
#	16392
#	31237
#	44770
#	58493
#	74788
#	94317
#	109490
#	123969
#	137506
#	151189
#	168242
#
# Disc length: 2429 seconds
#
# Revision: 0
# Processed by: cddbd v1.4PL0 Copyright (c) Steve Scherf et al.
# Submitted via: CDex 1.40Beta9
#
DISCID=ae097b0c
DTITLE=Alamocitas Country Crew - Feel Country
DYEAR=1998
DGENRE=Country
TTITLE0=Any Man Of Mine
TTITLE1=Get Me Back To Tennessee
TTITLE2=Have Mercy
TTITLE3=Dixie Road
TTITLE4=One Love At A Time
TTITLE5=When You Say Nothing At All
TTITLE6=I Won't Take Less Than Your Love
TTITLE7=Strong Enough To Bend
TTITLE8=Trail Of Tears
TTITLE9=Amarillo
TTITLE10=Bidding America Goodbye
TTITLE11=Love Me Like You Used To
EXTD=YEAR: 1998 ID3G: 2
EXTT0=
EXTT1=
EXTT2=
EXTT3=
EXTT4=
EXTT5=
EXTT6=
EXTT7=
EXTT8=
EXTT9=
EXTT10=
EXTT11=
PLAYORDER=
